<?xml version="1.0" encoding="utf-8"?>
<!-- Generator: Adobe Illustrator 27.2.0, SVG Export Plug-In . SVG Version: 6.00 Build 0)  -->
<svg version="1.1" id="Layer_1" xmlns="http://www.w3.org/2000/svg" xmlns:xlink="http://www.w3.org/1999/xlink" x="0px" y="0px"
	 viewBox="0 0 5000 1537" style="enable-background:new 0 0 5000 1537;" xml:space="preserve">
<style type="text/css">
	.st0{fill:#3F8813;}
</style>
<g transform="translate(0.000000,1537.000000) scale(0.100000,-0.100000)">
	<path class="st0" d="M4505,14359c-120-5-228-9-238-11c-16-3-11-13,31-68c229-302,353-605,527-1285c168-659,236-845,396-1084
		c66-100,198-239,290-309c379-285,1025-386,1894-296l150,16l65-69c154-161,293-432,424-825c87-260,171-598,216-868
		c11-69,22-134,25-146l4-20l108,17c60,10,165,23,234,30l126,12l13,66c37,193,118,461,201,663c92,223,248,502,346,616l28,33l90-31
		c255-87,481-130,721-137c201-6,294,3,433,43c436,126,724,445,974,1079c78,197,159,454,277,870c224,795,316,1072,477,1432
		c3,7-30-3-73-23c-329-150-727-248-1504-369c-833-130-1153-210-1455-362c-622-314-799-887-565-1828c22-88,53-200,68-250l28-90l54,90
		c524,873,1115,1411,2210,2010c221,121,770,399,776,393c2-2-43-30-99-63c-1536-885-2655-2102-3146-3420c-29-77-55-147-58-155
		s-25,59-49,150c-109,406-254,763-484,1191l-90,166l19,100c22,116,55,340,73,498c19,169,16,604-5,748c-31,211-73,348-156,522
		c-75,155-162,275-280,386c-377,357-957,530-1951,579C5406,14371,4827,14371,4505,14359z"/>
	<path d="M46310,12329c-186-18-377-73-508-145c-233-128-405-353-487-638c-57-200-67-287-74-641l-6-330l-225-5c-201-4-228-7-258-25
		c-50-30-70-83-78-206l-7-106l68,8c38,5,165,10,284,11l216,3l5-1670c5-1521,6-1674,22-1713c52-136,170-212,327-212
		c108,0,233,44,305,106l29,25l-22,92c-57,244-55,172-58,1840l-4,1537h476c521,0,507-2,559,60c32,39,44,83,48,189l3,83l-85-6
		c-47-3-291-9-542-12l-458-7v269c0,347,18,548,69,760c42,173,94,277,180,357c95,89,180,118,366,124c156,6,237-7,325-52
		c208-105,249-410,90-672c-23-36-39-72-36-78c2-7,26-23,53-36c42-20,63-23,163-24c110,0,118,1,183,33c84,41,174,128,210,202
		c84,172,69,398-37,552c-105,155-313,263-596,312C46693,12334,46438,12342,46310,12329z"/>
	<path d="M33670,12022c-66-22-134-56-176-88l-31-24l23-81c43-147,65-333,71-599c2-135,8-1145,11-2245l7-2000l23-49
		c32-71,66-112,117-142c95-55,56-54,1291-54h1141l34,23c23,15,42,41,57,77c20,49,22,68,19,170c-4,128-24,199-76,260l-29,35l-163-28
		c-565-95-1115-154-1630-173l-186-7l-6,2345l-6,2344l-22,59c-27,74-76,127-147,162c-50,24-71,28-162,30
		C33750,12039,33712,12036,33670,12022z"/>
	<path d="M17054,12015c-69-15-122-39-130-59c-3-7,2-74,10-147c30-261,35-609,37-2549c1-2150,1-2146-63-2424l-20-89l23-18
		c54-42,130-63,229-64c82,0,102,3,143,25c27,13,66,44,88,67c62,68,81,121,86,243c2,58-21,972-51,2031c-31,1060-56,1944-56,1965
		c0,34,18,7,195-284c351-583,713-1152,1150-1812c529-800,952-1388,1417-1971c183-230,190-237,236-249c64-16,184-14,255,5
		c59,15,112,39,120,52c2,5-2,67-10,138c-13,109-16,526-24,2535c-4,1323-12,2446-16,2495l-8,90l-45,12c-65,17-195,16-228-1
		c-105-55-175-230-188-466c-3-52,24-959,60-2015s66-1927,66-1935s-46,62-103,155c-440,725-1154,1796-2406,3609
		c-223,323-419,604-436,623c-19,22-44,37-70,43C17258,12033,17126,12031,17054,12015z"/>
	<path d="M23330,10668c-402-34-754-180-1002-416c-324-309-511-736-568-1300c-24-238-8-648,34-880c47-256,151-532,274-721
		c98-150,272-328,415-424c289-193,613-281,1032-281c294,0,527,43,754,139c310,131,545,373,611,630c39,153,19,239-66,283
		c-19,10-24,3-72-91c-128-251-357-422-670-501c-155-40-258-49-467-43c-172,4-201,8-310,36c-329,87-582,292-720,584
		c-97,204-138,378-180,756l-6,54l63-7c486-54,937-57,1251-10c588,87,980,322,1135,679c62,143,83,257,83,439c0,392-159,679-481,870
		C24159,10631,23757,10705,23330,10668z M23725,10385c283-55,469-218,531-464c47-189,31-475-38-651c-117-297-411-473-908-542
		c-128-17-506-15-739,5c-101,9-184,17-186,19c-5,6,15,323,25,402c30,223,93,456,166,615c42,92,145,246,216,325
		c69,77,190,167,292,216C23267,10398,23510,10427,23725,10385z"/>
	<path d="M38435,10674c-606-50-1022-283-1308-731c-217-339-327-780-327-1308c0-361,53-688,154-954c177-461,513-790,961-940
		c229-76,545-113,808-92c561,43,966,261,1151,621c101,195,103,360,5,419l-32,19l-46-91c-96-192-226-319-429-421
		c-183-92-393-136-651-136c-382,0-650,98-879,322c-224,220-345,536-390,1022l-8,88l65-6c683-71,1159-56,1546,51
		c419,114,697,318,831,607c111,241,120,593,22,846c-138,354-492,592-988,664C38813,10670,38526,10681,38435,10674z M38785,10384
		c213-41,396-167,474-327c110-225,104-597-15-844c-70-147-181-251-359-338c-182-88-360-133-627-156c-162-14-564,0-775,27l-43,5v90
		c0,216,50,537,115,734c77,235,172,395,329,550c103,103,187,160,301,208C38354,10403,38582,10422,38785,10384z"/>
	<path d="M42125,10673c-388-18-722-112-947-264c-80-54-186-166-231-241c-107-179-132-443-62-648c50-147,176-303,289-359
		c141-69,341-69,478,0c42,21,108,76,108,90c0,4-19,17-42,27c-75,33-153,115-198,206c-53,107-72,189-72,306c-1,183,42,302,146,406
		c152,152,428,226,756,202c230-16,399-87,536-223c89-89,140-170,191-307c75-200,103-380,110-723l6-260l-264-1
		c-825-3-1539-232-1942-623c-136-132-216-255-267-410c-40-124-54-232-47-375c7-146,32-252,87-361c106-212,293-356,546-421
		c136-35,361-44,521-20c356,53,661,213,944,495c165,166,273,313,389,534l57,107l7-207c9-307,38-463,113-621c43-92,149-205,231-246
		c120-61,316-85,459-56c77,16,207,79,263,128c116,102,148,268,78,406c-34,69-34,69-91,12c-56-56-139-96-201-96c-90,0-182,54-221,130
		c-49,95-48,80-55,1120c-6,856-9,988-24,1080c-63,382-168,627-352,820c-95,99-182,164-299,224c-182,92-406,148-675,166
		C42312,10679,42260,10680,42125,10673z M43206,8573c-25-286-116-543-280-792c-174-266-396-469-651-596c-145-72-231-95-377-102
		c-134-7-215,6-298,45c-235,111-341,464-235,783c109,325,506,586,1040,684c111,20,197,31,385,48c19,2,122,5,229,5l193,2L43206,8573z
		"/>
	<path d="M28095,10629c-59-8-243-53-252-63c-2-2,4-23,13-47c22-57,21-189,0-289c-9-41-195-765-413-1609c-272-1050-400-1527-405-1515
		c-5,11-215,753-468,1649c-317,1125-469,1649-491,1693c-55,108-146,161-294,169c-52,3-114,0-147-6c-66-14-157-58-208-100l-35-29
		l21-24c38-41,71-102,118-216c25-62,276-844,557-1739s521-1648,534-1674c73-144,253-199,500-154c104,19,221,54,262,80
		c2,1,190,712,418,1581c229,868,421,1597,427,1619c9,34,12,37,18,20c4-11,193-716,420-1565c230-860,423-1566,436-1593
		c28-54,81-96,163-129c47-19,76-22,181-23c134,0,231,19,343,69l55,24l69,208c39,115,292,866,563,1669s500,1485,508,1515
		c10,34,16,100,16,175c1,110-1,124-24,165c-31,56-90,95-171,116c-88,23-267,15-364-16c-38-12-71-23-73-25s4-27,12-56
		c20-67,20-141,0-258c-13-78-857-3147-868-3158c-4-5,37-161-466,1752c-278,1056-429,1614-445,1640c-32,54-60,79-125,109
		C28385,10637,28256,10649,28095,10629z"/>
	<path class="st0" d="M8770,9214c-653-57-1133-191-1700-475c-892-447-1800-1204-2883-2404c-142-156-141-148-17-159
		c319-28,674-125,1160-316c583-228,862-326,1222-425c155-43,496-125,520-125c7,0-19,21-57,47c-188,126-420,327-561,486
		c-329,373-461,793-359,1141c67,229,224,435,402,529c106,55,178,71,323,70c207-1,358-43,840-235c502-200,652-235,960-225
		c582,19,1165,165,1669,416c229,115,401,150,901,186c525,38,734,66,1032,141c123,31,361,108,401,130c12,7-25,33-151,106
		c-1107,641-2038,985-2962,1094C9382,9211,8876,9223,8770,9214z"/>
	<path class="st0" d="M13580,7654c-14-2-65-9-115-15c-204-25-392-72-735-184c-357-116-527-149-1065-205c-725-77-1096-156-1640-351
		c-234-83-327-111-492-143c-307-61-564-86-895-86c-545,0-932,82-1240,263c-198,116-323,166-467,187c-326,48-488-200-366-560
		c72-211,218-423,441-640c219-213,330-289,584-400c537-235,1045-326,1665-298c229,10,406,28,745,75c316,43,529,53,605,26
		c45-16,50-21,53-52c3-28-3-41-35-73c-101-104-250-170-784-346c-759-251-1086-317-1574-317c-221,0-284,4-415,24
		c-288,43-615,138-889,258c-414,181-530,220-1079,358c-460,115-579,152-787,243c-347,152-744,264-1130,318c-177,24-572,30-737,10
		c-349-43-602-147-689-284c-23-36-29-57-29-99c0-93,53-166,183-250c102-67,174-96,482-198c302-100,425-150,629-252
		c303-152,534-310,1131-773c132-102,314-242,405-311c91-68,235-180,320-249c601-483,726-577,950-711c312-185,532-264,1320-470
		c826-216,1054-292,1595-532c398-176,608-245,843-277c135-19,368-8,502,23c283,66,593,228,947,495c588,442,998,644,1679,827
		c423,114,632,177,838,254c344,129,474,161,651,161c238,0,442-78,760-287c93-62,180-113,191-113c30,0,81,61,115,136
		c110,243,228,861,304,1596c90,874,95,1614,11,1707c-9,10-35,24-58,31c-143,42-392,169-578,293c-238,159-512,402-633,562
		c-95,126-156,192-242,267c-232,202-509,320-840,358C13931,7659,13637,7662,13580,7654z"/>
	<path d="M17151,4524c-83-22-147-70-193-145c-72-116-96-450-52-708c36-211,127-299,319-309c97-5,183,13,305,62l60,25l6-27
		c11-51,12-52,59-52h45v304v303l-67,6c-50,4-305-6-330-12c-2-1-3-21-3-46v-45h140h140v-175v-174l-67-21c-102-32-235-45-305-31
		c-154,33-200,137-200,461c0,295,34,402,147,463c36,20,56,22,185,22c80,0,182-3,228-8l82-7v43v44l-57,11
		C17417,4542,17241,4548,17151,4524z"/>
	<path d="M32281,4525c-106-30-168-85-193-169c-7-23-12-93-12-156c0-98,3-122,22-165c51-111,106-136,322-145c181-7,210-17,241-83
		c13-30,19-65,19-122c0-109-21-154-86-186c-47-23-56-24-282-24h-233l3-45l3-45l50-8c28-5,136-9,240-10c175-2,194,0,244,20
		c139,57,165,100,169,287c4,149-8,198-66,258c-52,55-109,70-287,77c-137,6-153,8-184,30c-46,33-61,75-61,171c0,93,14,135,59,172
		c50,43,120,52,318,42l173-9v46v47l-77,11C32528,4539,32342,4542,32281,4525z"/>
	<path d="M42770,4529c-148-29-230-120-273-303c-20-83-16-504,6-589c34-136,90-211,185-249c53-21,71-23,237-21c109,1,204,6,240,15
		l60,13v45c0,35-3,44-15,41c-8-2-91-5-185-8c-203-7-269,4-321,49c-80,71-99,151-99,423c0,227,8,284,53,368c51,95,134,123,337,113
		c72-3,154-9,183-12l52-7v45v46l-62,11C42993,4541,42863,4547,42770,4529z"/>
	<path d="M46981,4524c-149-40-201-123-201-319c0-124,18-189,64-237c53-54,108-69,281-77c167-7,196-16,232-70c20-30,23-46,23-130
		c0-118-15-155-80-191c-45-25-48-25-283-25h-238l3-45l3-45l60-9c33-5,143-9,245-10c173-1,189,1,245,23c72,29,129,84,147,144
		c7,24,13,94,13,162c0,112-2,124-29,178c-50,104-135,137-347,137c-173,1-218,35-227,175c-6,92,11,151,54,192c50,47,111,56,318,48
		c94-4,173-7,176-7c9,3,11,75,2,84c-13,13-230,37-327,37C47071,4539,47011,4532,46981,4524z"/>
	<path d="M19505,4518c-3-7-80-231-171-498s-178-522-194-567l-29-83h63h64l28,83c15,45,40,119,56,165l30,82l236-2l237-3l56-160
		l55-160l62-3c34-2,62,1,62,5c0,5-80,242-178,528c-99,286-187,544-196,573l-18,52h-79C19534,4530,19508,4526,19505,4518z
		 M19686,4128c53-161,99-299,102-305c3-10-41-13-201-13h-205l101,305c56,168,103,305,104,305S19632,4288,19686,4128z"/>
	<path d="M21480,3951v-581h60h60v240v240h109c59,0,128-3,153-6l44-6l110-234l109-234h62h62l-48,103c-27,56-75,156-108,222
		c-86,171-85,156-8,194c111,55,146,125,146,296c2,178-33,255-138,307l-67,33l-273,3l-273,3V3951z M21991,4409c50-17,95-64,109-115
		c19-65,9-221-15-263c-46-78-90-90-317-91h-168v240v240h179C21885,4420,21971,4415,21991,4409z"/>
	<path d="M23670,3949v-580l283,3c272,3,284,4,329,26c151,76,228,260,228,553c0,289-68,472-199,539c-66,33-136,40-391,40h-250V3949z
		 M24256,4385c99-62,140-209,131-470c-7-197-33-287-105-367c-58-64-75-68-297-68h-195v463c0,255,3,467,7,471s98,6,209,4l201-3
		L24256,4385z"/>
	<path d="M26106,4516c-60-23-89-47-116-102l-25-49v-425v-425l25-50c20-39,35-55,75-75c50-25,50-25,310-23c143,1,270,5,283,8
		c21,5,23,11,20,53l-3,47l-260,5c-143,3-268,9-278,14c-39,19-47,57-47,231v165h118c64,0,181,3,260,7l142,6v42v43l-260,7l-260,8v164
		c0,256-13,247,333,251l257,3v44c0,24-3,46-7,48c-5,3-125,8-268,11C26190,4529,26138,4528,26106,4516z"/>
	<path d="M28150,3950v-580h60h60l2,471l3,471l300-469l301-468l52-3l52-3v580v581h-60h-60v-471c0-258-4-468-8-465
		c-5,3-142,214-307,470l-298,466h-49h-48V3950z"/>
	<path d="M34388,4514c-61-19-113-68-127-122c-8-29-11-174-9-475c3-494,0-473,90-522c48-26,63-29,168-32c63-2,189,0,280,4l165,8l3,52
		l3,52l-265,3l-266,3l-27,28l-28,27l-3,175l-3,175h118c65,0,182,3,261,7l142,6v42v42l-182,6c-99,4-217,7-260,7h-79l3,174
		c4,252-4,246,348,246h240v48v49l-197,6C34497,4532,34443,4531,34388,4514z"/>
	<path d="M36410,3951v-581h60h60v240v240h109c59,0,128-3,153-6l45-6l109-234l109-233l62-1h62l-48,103c-27,56-75,156-108,222
		c-86,171-85,157-10,193c111,51,147,125,148,297c2,178-33,255-138,307l-67,33l-273,3l-273,3V3951z M36928,4407c48-18,90-63,103-110
		c17-65,8-225-16-266c-46-78-89-90-317-91h-168v240v240l183-1C36826,4419,36907,4414,36928,4407z"/>
	<path d="M38540,4524c0-3,77-232,171-508c94-275,183-534,196-574l25-73l81,3l81,3l198,575c108,316,197,576,198,578c0,1-28,2-62,2
		h-63l-174-515c-95-284-176-514-178-512c-2,3-82,233-177,513l-174,509l-61,3C38567,4530,38540,4528,38540,4524z"/>
	<path d="M40900,3950v-580h60h60v580v580h-60h-60V3950z"/>
	<path d="M44799,4521c-75-24-125-69-144-135c-12-40-15-126-15-446c0-442,4-476,61-524c62-52,117-59,389-51c135,4,248,9,253,12
		c4,2,7,26,7,54v49h-250c-269,0-295,4-322,53c-8,14-14,80-16,190l-4,167h124c69,0,186,3,261,7l137,6v42v42l-182,6c-99,4-217,7-260,7
		h-80l4,163c5,261,0,257,346,257h242v48v49l-197,6C44915,4531,44833,4531,44799,4521z"/>
</g>
</svg>
